<svg width="186" height="116" viewBox="0 0 186 116" fill="none" xmlns="http://www.w3.org/2000/svg">
<path d="M97.0576 8.76591H116.601V55.523H97.0576V36.5274H103.288V27.7615H97.0576V8.76591Z" fill="white"/>
<path d="M68.9607 8.76591H88.2913V55.523H68.9607V8.76591Z" fill="white"/>
<path fill-rule="evenodd" clip-rule="evenodd" d="M59.8935 62.3774H68.8844C69.8609 62.3774 70.8074 62.9138 71.7267 63.9927C72.2271 64.7404 72.4773 65.4003 72.4773 65.9703V67.8961C72.4773 68.9329 71.8984 69.9186 70.7381 70.8529C70.0147 71.3019 69.3306 71.525 68.6885 71.525H61.9429V74.9611C61.9429 75.0122 61.9157 75.0393 61.8647 75.0393H59.8935C59.8422 75.0393 59.8151 75.0122 59.8151 74.9611V62.4556C59.8211 62.4045 59.8482 62.3774 59.8935 62.3774ZM61.9429 69.4422V64.4692H68.8844L69.0864 64.5052C69.9512 64.9574 70.3852 65.4699 70.3852 66.0424V67.86C70.3852 67.9475 70.3463 68.092 70.271 68.294C69.7977 69.0596 69.2974 69.4422 68.7699 69.4422H61.9429Z" fill="white"/>
<path fill-rule="evenodd" clip-rule="evenodd" d="M77.2294 62.3774H82.6699C83.6885 62.3774 84.6743 62.956 85.6265 64.1166C86.0758 64.8639 86.2988 65.5723 86.2988 66.2444V71.2509C86.2988 72.3448 85.735 73.3726 84.6047 74.3341C83.8452 74.8045 83.1339 75.0393 82.474 75.0393H77.4254C76.0599 75.0393 74.9175 74.2888 73.9985 72.788C73.733 72.0917 73.6005 71.5942 73.6005 71.2959V66.2804C73.6005 64.8186 74.3629 63.6373 75.8882 62.73C76.4518 62.4949 76.9008 62.3774 77.2294 62.3774ZM75.7284 71.3744V66.0516C75.7284 65.9974 75.7555 65.8646 75.8097 65.6537C76.2919 64.8639 76.7773 64.4692 77.2655 64.4692H82.6336C82.7242 64.4692 82.8655 64.5084 83.0675 64.5837C83.8031 65.0538 84.1707 65.5302 84.1707 66.0063V71.4526C84.1164 71.6367 84.0925 71.7391 84.0925 71.763C83.6011 72.5528 83.0918 72.9476 82.5554 72.9476H77.344C77.2987 72.9476 77.1691 72.9204 76.955 72.8662C76.1384 72.3901 75.7284 71.8926 75.7284 71.3744Z" fill="white"/>
<path d="M87.4371 62.3774H89.3964C89.4685 62.3895 89.5017 62.4195 89.5017 62.4738V67.6309H91.3643L96.9105 62.3774H99.9034C99.9698 62.3895 100.003 62.4195 100.003 62.4738C99.7253 62.7932 97.5825 64.87 93.5739 68.7069L100.003 74.8887V74.943C100.003 75.0061 99.9698 75.0393 99.9034 75.0393H96.9105L91.3643 69.7858H89.5017V74.943C89.5017 75.0061 89.4685 75.0393 89.3964 75.0393H87.4371C87.3707 75.0393 87.3375 75.0061 87.3375 74.943V62.4738C87.3496 62.4106 87.3828 62.3774 87.4371 62.3774Z" fill="white"/>
<path fill-rule="evenodd" clip-rule="evenodd" d="M104.832 62.3774H110.272C111.291 62.3774 112.277 62.956 113.229 64.1166C113.678 64.8639 113.901 65.5723 113.901 66.2444V71.2509C113.901 72.3448 113.338 73.3726 112.208 74.3341C111.448 74.8045 110.737 75.0393 110.077 75.0393H105.028C103.663 75.0393 102.52 74.2888 101.601 72.788C101.336 72.0917 101.203 71.5942 101.203 71.2959V66.2804C101.203 64.8186 101.966 63.6373 103.491 62.73C104.055 62.4949 104.504 62.3774 104.832 62.3774ZM103.331 71.3744V66.0516C103.331 65.9974 103.358 65.8646 103.413 65.6537C103.895 64.8639 104.38 64.4692 104.868 64.4692H110.236C110.327 64.4692 110.468 64.5084 110.67 64.5837C111.406 65.0538 111.774 65.5302 111.774 66.0063V71.4526C111.719 71.6367 111.695 71.7391 111.695 71.763C111.204 72.5528 110.695 72.9476 110.158 72.9476H104.947C104.902 72.9476 104.772 72.9204 104.558 72.8662C103.741 72.3901 103.331 71.8926 103.331 71.3744Z" fill="white"/>
<path d="M118.647 62.3774H124.166C125.139 62.3774 126.073 62.9049 126.975 63.9567C127.499 64.7101 127.761 65.3825 127.761 65.9703L127.68 66.0063H125.667C125.667 65.506 125.263 65.0206 124.449 64.5506C124.28 64.4963 124.162 64.4692 124.096 64.4692H118.761C118.273 64.4692 117.788 64.8489 117.305 65.6084C117.23 65.8618 117.191 66.0606 117.191 66.1991V71.2959C117.191 71.8355 117.586 72.348 118.375 72.833C118.61 72.9083 118.764 72.9476 118.842 72.9476H124.051C124.6 72.9476 125.112 72.5407 125.588 71.727C125.588 71.6456 125.615 71.54 125.667 71.4104L125.871 71.4468H127.647L127.725 71.4104L127.761 71.4889C127.761 72.3027 127.276 73.1978 126.302 74.1742C125.48 74.7502 124.702 75.0393 123.972 75.0393H118.921C117.556 75.0393 116.441 74.3312 115.575 72.9115C115.256 72.3298 115.099 71.748 115.099 71.1724V66.1991C115.099 64.8457 115.822 63.7036 117.269 62.7753C117.905 62.5098 118.366 62.3774 118.647 62.3774Z" fill="white"/>
<path fill-rule="evenodd" clip-rule="evenodd" d="M61.9429 69.4422V64.4692H68.8844L69.0864 64.5052C69.9512 64.9574 70.3852 65.4699 70.3852 66.0424V67.86C70.3852 67.9475 70.3463 68.092 70.271 68.294C69.7977 69.0596 69.2974 69.4422 68.7699 69.4422H61.9429ZM75.7284 71.3744V66.0516C75.7284 65.9974 75.7555 65.8646 75.8097 65.6537C76.2919 64.8639 76.7773 64.4692 77.2655 64.4692H82.6336C82.7242 64.4692 82.8655 64.5084 83.0675 64.5837C83.8031 65.0538 84.1707 65.5302 84.1707 66.0063V71.4526C84.1164 71.6367 84.0925 71.7391 84.0925 71.763C83.6011 72.5528 83.0918 72.9476 82.5554 72.9476H77.344C77.2987 72.9476 77.1691 72.9204 76.955 72.8662C76.1384 72.3901 75.7284 71.8926 75.7284 71.3744ZM103.331 71.3744V66.0516C103.331 65.9974 103.358 65.8646 103.413 65.6537C103.895 64.8639 104.38 64.4692 104.868 64.4692H110.236C110.327 64.4692 110.468 64.5084 110.67 64.5837C111.406 65.0538 111.774 65.5302 111.774 66.0063V71.4526C111.719 71.6367 111.695 71.7391 111.695 71.763C111.204 72.5528 110.695 72.9476 110.158 72.9476H104.947C104.902 72.9476 104.772 72.9204 104.558 72.8662C103.741 72.3901 103.331 71.8926 103.331 71.3744Z" fill="white"/>
<path fill-rule="evenodd" clip-rule="evenodd" d="M68.9607 8.76591H88.2913V55.523H68.9607V8.76591ZM97.0576 8.76591H116.601V55.523H97.0576V36.5274H103.288V27.7615H97.0576V8.76591ZM55.4062 55.523H60.1948V0H125.367V55.523H130.261V82.1018H55.4062V55.523ZM59.8935 62.3774H68.8844C69.8609 62.3774 70.8074 62.9138 71.7267 63.9927C72.2271 64.7404 72.4773 65.4003 72.4773 65.9703V67.8961C72.4773 68.9329 71.8984 69.9186 70.7381 70.8529C70.0147 71.3019 69.3306 71.525 68.6885 71.525H61.9429V74.9611C61.9429 75.0122 61.9157 75.0393 61.8647 75.0393H59.8935C59.8422 75.0393 59.8151 75.0122 59.8151 74.9611V62.4556C59.8211 62.4045 59.8482 62.3774 59.8935 62.3774ZM61.9429 64.4692V69.4422H68.7699C69.2974 69.4422 69.7977 69.0596 70.271 68.294C70.3463 68.092 70.3852 67.9475 70.3852 67.86V66.0424C70.3852 65.4699 69.9512 64.9574 69.0864 64.5052L68.8844 64.4692H61.9429ZM87.4371 62.3774H89.3964C89.4685 62.3895 89.5017 62.4195 89.5017 62.4738V67.6309H91.3643L96.9105 62.3774H99.9034C99.9698 62.3895 100.003 62.4195 100.003 62.4738C99.7253 62.7932 97.5825 64.87 93.5739 68.7069L100.003 74.8887V74.943C100.003 75.0061 99.9698 75.0393 99.9034 75.0393H96.9105L91.3643 69.7858H89.5017V74.943C89.5017 75.0061 89.4685 75.0393 89.3964 75.0393H87.4371C87.3707 75.0393 87.3375 75.0061 87.3375 74.943V62.4738C87.3496 62.4106 87.3828 62.3774 87.4371 62.3774ZM77.2294 62.3774H82.6699C83.6885 62.3774 84.6743 62.956 85.6265 64.1166C86.0758 64.8639 86.2988 65.5723 86.2988 66.2444V71.2509C86.2988 72.3448 85.735 73.3726 84.6047 74.3341C83.8452 74.8045 83.1339 75.0393 82.474 75.0393H77.4254C76.0599 75.0393 74.9175 74.2888 73.9985 72.788C73.733 72.0917 73.6005 71.5942 73.6005 71.2959V66.2804C73.6005 64.8186 74.3629 63.6373 75.8882 62.73C76.4518 62.4949 76.9008 62.3774 77.2294 62.3774ZM75.7284 66.0516V71.3744C75.7284 71.8926 76.1384 72.3901 76.955 72.8662C77.1691 72.9204 77.2987 72.9476 77.344 72.9476H82.5554C83.0918 72.9476 83.6011 72.5528 84.0925 71.763C84.0925 71.7391 84.1164 71.6367 84.1707 71.4526V66.0063C84.1707 65.5302 83.8031 65.0538 83.0675 64.5837C82.8655 64.5084 82.7242 64.4692 82.6336 64.4692H77.2655C76.7773 64.4692 76.2919 64.8639 75.8097 65.6537C75.7555 65.8646 75.7284 65.9974 75.7284 66.0516ZM118.647 62.3774H124.166C125.139 62.3774 126.073 62.9049 126.975 63.9567C127.499 64.7101 127.761 65.3825 127.761 65.9703L127.68 66.0063H125.667C125.667 65.506 125.263 65.0206 124.449 64.5506C124.28 64.4963 124.162 64.4692 124.096 64.4692H118.761C118.273 64.4692 117.788 64.8489 117.305 65.6084C117.23 65.8618 117.191 66.0606 117.191 66.1991V71.2959C117.191 71.8355 117.586 72.348 118.375 72.833C118.61 72.9083 118.764 72.9476 118.842 72.9476H124.051C124.6 72.9476 125.112 72.5407 125.588 71.727C125.588 71.6456 125.615 71.54 125.667 71.4104L125.871 71.4468H127.647L127.725 71.4104L127.761 71.4889C127.761 72.3027 127.276 73.1978 126.302 74.1742C125.48 74.7502 124.702 75.0393 123.972 75.0393H118.921C117.556 75.0393 116.441 74.3312 115.575 72.9115C115.256 72.3298 115.099 71.748 115.099 71.1724V66.1991C115.099 64.8457 115.822 63.7036 117.269 62.7753C117.905 62.5098 118.366 62.3774 118.647 62.3774ZM104.832 62.3774H110.272C111.291 62.3774 112.277 62.956 113.229 64.1166C113.678 64.8639 113.901 65.5723 113.901 66.2444V71.2509C113.901 72.3448 113.338 73.3726 112.208 74.3341C111.448 74.8045 110.737 75.0393 110.077 75.0393H105.028C103.663 75.0393 102.52 74.2888 101.601 72.788C101.336 72.0917 101.203 71.5942 101.203 71.2959V66.2804C101.203 64.8186 101.966 63.6373 103.491 62.73C104.055 62.4949 104.504 62.3774 104.832 62.3774ZM103.331 66.0516V71.3744C103.331 71.8926 103.741 72.3901 104.558 72.8662C104.772 72.9204 104.902 72.9476 104.947 72.9476H110.158C110.695 72.9476 111.204 72.5528 111.695 71.763C111.695 71.7391 111.719 71.6367 111.774 71.4526V66.0063C111.774 65.5302 111.406 65.0538 110.67 64.5837C110.468 64.5084 110.327 64.4692 110.236 64.4692H104.868C104.38 64.4692 103.895 64.8639 103.413 65.6537C103.358 65.8646 103.331 65.9974 103.331 66.0516Z" fill="#D22124"/>
<path d="M0.109738 91.3279H9.72799C9.76756 91.3327 9.7883 91.3534 9.7883 91.3882V101.034C9.7883 101.074 9.76756 101.095 9.72799 101.095H8.18191C8.1401 101.095 8.11904 101.074 8.11904 101.034V92.9901H1.68358V101.034C1.68358 101.074 1.66284 101.095 1.62104 101.095H0.109738C0.0679352 101.095 0.046875 101.074 0.046875 101.034V91.3882C0.0516616 91.3489 0.0724027 91.3279 0.109738 91.3279ZM11.6133 91.3279H18.5485C19.3019 91.3279 20.032 91.7418 20.7411 92.574C21.1269 93.1506 21.3199 93.6596 21.3199 94.099V95.5848C21.3199 96.3845 20.8735 97.1449 19.9784 97.8655C19.4203 98.212 18.8928 98.384 18.3975 98.384H13.1945V101.034C13.1945 101.074 13.1734 101.095 13.1338 101.095H11.6133C11.574 101.095 11.553 101.074 11.553 101.034V91.3882C11.5578 91.3489 11.5785 91.3279 11.6133 91.3279ZM13.1945 92.9413V96.7773H18.4604C18.8673 96.7773 19.2531 96.4821 19.6181 95.8918C19.6762 95.7357 19.7065 95.6244 19.7065 95.557V94.1549C19.7065 93.7132 19.3718 93.3178 18.7045 92.9694L18.5485 92.9413H13.1945ZM25.8768 91.3279H30.0731C30.859 91.3279 31.6192 91.7743 32.3537 92.6694C32.7003 93.246 32.8723 93.7924 32.8723 94.3106V98.1724C32.8723 99.0162 32.4377 99.8091 31.5659 100.551C30.98 100.914 30.4311 101.095 29.9221 101.095H26.0277C24.9747 101.095 24.0936 100.516 23.3842 99.3579C23.1797 98.8209 23.0776 98.4373 23.0776 98.2072V94.3387C23.0776 93.2109 23.6657 92.2996 24.8419 91.5998C25.2769 91.4185 25.6234 91.3279 25.8768 91.3279ZM24.7187 94.1619V98.2675C24.7187 98.6677 25.035 99.0513 25.6652 99.4186C25.8302 99.4604 25.9301 99.4814 25.9652 99.4814H29.9847C30.3986 99.4814 30.7914 99.1767 31.1705 98.5675C31.1705 98.549 31.189 98.4698 31.2308 98.3282V94.1271C31.2308 93.7598 30.9474 93.3925 30.3801 93.0297C30.2243 92.9716 30.1149 92.9413 30.0453 92.9413H25.9046C25.528 92.9413 25.1537 93.246 24.7816 93.8549C24.7398 94.0176 24.7187 94.1201 24.7187 94.1619ZM34.6973 91.3279H36.2434C36.2947 91.3371 36.3203 91.3604 36.3203 91.4022V98.4188L42.7694 91.3279H44.3155C44.3666 91.3371 44.3899 91.3604 44.3899 91.4022V101.02C44.3899 101.069 44.3666 101.095 44.3155 101.095H42.7694C42.7206 101.095 42.6951 101.069 42.6951 101.02V94.0039C42.444 94.227 40.849 95.9869 37.9056 99.2836C36.8991 100.399 36.3317 101.004 36.2108 101.095H34.6973C34.6484 101.095 34.6229 101.069 34.6229 101.02V91.4022C34.6322 91.3534 34.6577 91.3279 34.6973 91.3279ZM48.8724 91.3279H53.0757C53.8617 91.3279 54.631 91.7813 55.3844 92.6901C55.7122 93.276 55.8749 93.7691 55.8749 94.1689C55.8749 94.8177 55.5587 95.4986 54.9287 96.2102C55.5587 96.9193 55.8749 97.5888 55.8749 98.2213C55.8749 99.0698 55.4215 99.8509 54.5126 100.562C53.9408 100.918 53.4222 101.095 52.9595 101.095H49.0233C48.133 101.095 47.3123 100.602 46.5636 99.6161C46.3406 99.221 46.1893 98.7816 46.108 98.2956C46.136 98.2956 46.1475 98.2816 46.1475 98.2538L46.3313 98.2956H47.6611L47.7354 98.2538C47.9307 98.7816 48.2214 99.1349 48.6072 99.3161C48.8073 99.3905 48.9327 99.4256 48.9815 99.4256H52.8852C53.4385 99.4256 53.8802 99.086 54.2057 98.4047V98.2213C54.2057 97.8887 53.98 97.5492 53.5244 97.1982C53.2943 97.0935 53.1293 97.0425 53.0339 97.0425H49.628C49.5792 97.0425 49.5534 97.0169 49.5534 96.9681V95.4546C49.5629 95.4058 49.5885 95.3802 49.628 95.3802H53.0757C53.8291 95.0943 54.2057 94.7012 54.2057 94.2015V94.0923C54.2057 93.7713 53.929 93.4295 53.3756 93.0715C53.2129 93.0204 53.099 92.9971 53.0339 92.9971H48.9072C48.5794 92.9971 48.2284 93.2738 47.8516 93.8271C47.8238 94.0272 47.7865 94.1271 47.7354 94.1271H46.1823C46.1335 94.1271 46.108 94.1016 46.108 94.0527C46.108 93.6714 46.3731 93.0925 46.9054 92.3158C47.5586 91.7022 48.2144 91.3719 48.8724 91.3279ZM57.8164 91.3279H64.3632C65.8604 91.3279 66.8857 92.1323 67.4343 93.7458C67.4668 93.927 67.4831 94.076 67.4831 94.1944C67.4831 94.8362 67.1647 95.5082 66.5299 96.2102C67.1647 96.8912 67.4831 97.5795 67.4831 98.2745C67.4831 99.0605 67.0274 99.8162 66.1208 100.544C65.535 100.911 64.9654 101.095 64.4098 101.095H57.8164C57.7487 101.095 57.7139 101.06 57.7139 100.992V91.4303C57.7232 91.3604 57.758 91.3279 57.8164 91.3279ZM59.3762 92.9901V95.3521H64.7094C65.4514 95.0803 65.8209 94.6945 65.8209 94.1944C65.8209 93.6411 65.4351 93.239 64.6632 92.9901H59.3762ZM59.3762 97.0702V99.4326L59.4786 99.386H64.6143C64.6469 99.386 64.6632 99.4 64.6632 99.4326C65.4351 99.1278 65.8209 98.7095 65.8209 98.1724C65.8209 97.7238 65.4676 97.3565 64.7653 97.0702H59.3762ZM72.0585 91.3279H76.2551C77.0411 91.3279 77.8012 91.7743 78.5358 92.6694C78.8823 93.246 79.0543 93.7924 79.0543 94.3106V98.1724C79.0543 99.0162 78.6197 99.8091 77.7476 100.551C77.1617 100.914 76.6131 101.095 76.1038 101.095H72.2098C71.1567 101.095 70.2753 100.516 69.5663 99.3579C69.3617 98.8209 69.2593 98.4373 69.2593 98.2072V94.3387C69.2593 93.2109 69.8477 92.2996 71.0239 91.5998C71.4589 91.4185 71.8051 91.3279 72.0585 91.3279ZM70.9008 94.1619V98.2675C70.9008 98.6677 71.217 99.0513 71.8469 99.4186C72.0122 99.4604 72.1121 99.4814 72.1469 99.4814H76.1667C76.5806 99.4814 76.9734 99.1767 77.3525 98.5675C77.3525 98.549 77.371 98.4698 77.4128 98.3282V94.1271C77.4128 93.7598 77.1291 93.3925 76.5621 93.0297C76.4063 92.9716 76.2969 92.9413 76.2273 92.9413H72.0866C71.71 92.9413 71.3357 93.246 70.9636 93.8549C70.9218 94.0176 70.9008 94.1201 70.9008 94.1619ZM85.2594 91.3279H89.4419C90.1092 91.3279 90.8138 91.7185 91.5528 92.4996C91.9855 93.1388 92.1993 93.718 92.1993 94.2362V99.4H93.6315C93.6803 99.4067 93.7059 99.4326 93.7059 99.4744V101.02C93.7059 101.069 93.6803 101.095 93.6315 101.095H80.9629C80.9118 101.095 80.8863 101.069 80.8863 101.02V99.4744C80.8956 99.423 80.9211 99.4 80.9629 99.4H82.4324V94.1944C82.4324 93.8807 82.5974 93.39 82.9229 92.7227C83.6763 91.7928 84.4549 91.3279 85.2594 91.3279ZM84.0876 99.4H90.4975V93.9296C90.2697 93.4388 89.9324 93.1251 89.4837 92.9901H85.3012C84.7922 92.9901 84.3876 93.3667 84.0876 94.1201V99.4ZM98.2347 91.3279H102.492C103.243 91.3279 103.963 91.7347 104.658 92.5462C105.063 93.1273 105.265 93.6459 105.265 94.099L105.202 94.1271H103.65C103.65 93.741 103.338 93.3667 102.71 93.0042C102.58 92.9624 102.489 92.9413 102.438 92.9413H98.3231C97.9465 92.9413 97.5722 93.2342 97.2001 93.8201C97.142 94.0154 97.1117 94.1689 97.1117 94.2758V98.2072C97.1117 98.6233 97.4165 99.0187 98.0256 99.393C98.2069 99.4511 98.3253 99.4814 98.3859 99.4814H102.403C102.826 99.4814 103.222 99.1674 103.589 98.5397C103.589 98.4769 103.61 98.3955 103.65 98.2956L103.808 98.3234H105.177L105.237 98.2956L105.265 98.3559C105.265 98.9836 104.891 99.6742 104.14 100.428C103.505 100.871 102.905 101.095 102.343 101.095H98.4462C97.3932 101.095 96.5328 100.549 95.8656 99.4533C95.6192 99.0047 95.4983 98.556 95.4983 98.1118V94.2758C95.4983 93.232 96.0564 92.3509 97.1723 91.6349C97.6628 91.4303 98.0186 91.3279 98.2347 91.3279ZM107.062 91.3279H116.681C116.723 91.3327 116.741 91.3534 116.741 91.3882V92.9273C116.741 92.9694 116.723 92.9901 116.681 92.9901H112.689V101.034C112.689 101.074 112.668 101.095 112.628 101.095H111.115C111.075 101.095 111.054 101.074 111.054 101.034V92.9901H107.062C107.023 92.9901 107.002 92.9694 107.002 92.9273V91.3882C107.007 91.3489 107.028 91.3279 107.062 91.3279ZM118.689 91.3279H125.236C126.734 91.3279 127.759 92.1323 128.307 93.7458C128.34 93.927 128.356 94.076 128.356 94.1944C128.356 94.8362 128.038 95.5082 127.403 96.2102C128.038 96.8912 128.356 97.5795 128.356 98.2745C128.356 99.0605 127.901 99.8162 126.994 100.544C126.408 100.911 125.838 101.095 125.283 101.095H118.689C118.622 101.095 118.587 101.06 118.587 100.992V91.4303C118.596 91.3604 118.631 91.3279 118.689 91.3279ZM120.249 92.9901V95.3521H125.583C126.324 95.0803 126.694 94.6945 126.694 94.1944C126.694 93.6411 126.308 93.239 125.536 92.9901H120.249ZM120.249 97.0702V99.4326L120.352 99.386H125.487C125.52 99.386 125.536 99.4 125.536 99.4326C126.308 99.1278 126.694 98.7095 126.694 98.1724C126.694 97.7238 126.34 97.3565 125.638 97.0702H120.249ZM130.188 91.3279H139.846C139.895 91.3327 139.92 91.3582 139.92 91.4022V92.9135C139.92 92.9646 139.895 92.9901 139.846 92.9901H131.781L131.816 93.0645V95.1894L131.781 95.3732H139.846C139.895 95.3825 139.92 95.4106 139.92 95.4546V96.9681C139.92 97.0169 139.895 97.0425 139.846 97.0425H131.781L131.816 97.1168V99.3512L131.781 99.4256H139.846C139.895 99.4348 139.92 99.4604 139.92 99.4999V101.02C139.92 101.069 139.895 101.095 139.846 101.095H130.188C130.137 101.095 130.112 101.069 130.112 101.02V91.4022C130.121 91.3534 130.146 91.3279 130.188 91.3279ZM141.773 91.3279H143.312C143.354 91.3327 143.375 91.3534 143.375 91.3882V95.3802H149.818V91.3882C149.822 91.3489 149.843 91.3279 149.88 91.3279H151.391C151.433 91.3327 151.452 91.3534 151.452 91.3882V101.034C151.452 101.074 151.433 101.095 151.391 101.095H149.88C149.838 101.095 149.818 101.074 149.818 101.034V97.0425H143.375V101.034C143.375 101.074 143.354 101.095 143.312 101.095H141.773C141.734 101.095 141.713 101.074 141.713 101.034V91.3882C141.717 91.3489 141.738 91.3279 141.773 91.3279ZM153.284 91.3279H154.823C154.865 91.3327 154.886 91.3534 154.886 91.3882V95.3802H161.328V91.3882C161.333 91.3489 161.354 91.3279 161.391 91.3279H162.902C162.944 91.3327 162.963 91.3534 162.963 91.3882V101.034C162.963 101.074 162.944 101.095 162.902 101.095H161.391C161.349 101.095 161.328 101.074 161.328 101.034V97.0425H154.886V101.034C154.886 101.074 154.865 101.095 154.823 101.095H153.284C153.245 101.095 153.223 101.074 153.223 101.034V91.3882C153.228 91.3489 153.249 91.3279 153.284 91.3279ZM170.393 91.3279C170.467 91.3327 170.76 91.9974 171.272 93.3226C173.234 97.9283 174.313 100.497 174.508 101.034C174.508 101.074 174.487 101.095 174.448 101.095H172.934C172.881 101.095 172.609 100.451 172.118 99.1604H167.22C167.18 99.1789 166.906 99.8232 166.403 101.095H164.829C164.788 101.095 164.767 101.065 164.767 101.006C167.452 94.6176 168.814 91.3907 168.854 91.3279H170.393ZM167.854 97.4982H171.423V97.4634C170.251 94.6131 169.665 93.1621 169.665 93.1111C169.607 93.1809 169.003 94.6431 167.854 97.4982ZM178.962 91.3001L179.114 91.3279H185.937C185.979 91.3371 186 91.3582 186 91.3882V101.034C186 101.074 185.979 101.095 185.937 101.095H184.419C184.377 101.095 184.356 101.074 184.356 101.034V98.3977H181.36L178.535 101.095H176.293C176.252 101.095 176.231 101.074 176.231 101.034L178.962 98.3629C178.386 98.2908 177.83 98.0467 177.293 97.6354C176.586 96.94 176.231 96.194 176.231 95.3943V94.3039C176.231 93.2413 176.777 92.3602 177.865 91.6604C178.065 91.5394 178.432 91.4185 178.962 91.3001ZM177.9 94.1201V95.6055C177.9 95.8918 178.132 96.2032 178.595 96.545C178.795 96.6682 178.958 96.7285 179.086 96.7285H184.356V92.9694H179.051C178.679 92.9694 178.325 93.2505 177.988 93.8131C177.93 93.9178 177.9 94.0202 177.9 94.1201ZM46.5474 105.768H48.0587C48.1145 105.777 48.14 105.8 48.14 105.842V109.82H49.5767L53.8546 105.768H56.1634C56.2144 105.777 56.24 105.8 56.24 105.842C56.0262 106.089 54.3732 107.69 51.281 110.65L56.24 115.419V115.46C56.24 115.509 56.2144 115.535 56.1634 115.535H53.8546L49.5767 111.482H48.14V115.46C48.14 115.509 48.1145 115.535 48.0587 115.535H46.5474C46.4963 115.535 46.4708 115.509 46.4708 115.46V105.842C46.48 105.793 46.5056 105.768 46.5474 105.768ZM60.7946 105.768H64.9909C65.7769 105.768 66.537 106.214 67.2715 107.109C67.6181 107.686 67.7901 108.232 67.7901 108.751V112.612C67.7901 113.456 67.3555 114.249 66.4837 114.991C65.8978 115.354 65.3489 115.535 64.84 115.535H60.9455C59.8925 115.535 59.0111 114.956 58.302 113.798C58.0975 113.261 57.9954 112.878 57.9954 112.647V108.779C57.9954 107.651 58.5835 106.74 59.7597 106.04C60.1947 105.858 60.5412 105.768 60.7946 105.768ZM59.6366 108.602V112.708C59.6366 113.108 59.9528 113.491 60.583 113.859C60.748 113.9 60.8479 113.921 60.883 113.921H64.9025C65.3164 113.921 65.7092 113.617 66.0883 113.008C66.0883 112.989 66.1068 112.91 66.1486 112.768V108.567C66.1486 108.2 65.8652 107.832 65.2979 107.47C65.1421 107.412 65.0327 107.381 64.9631 107.381H60.8224C60.4458 107.381 60.0715 107.686 59.6994 108.295C59.6576 108.458 59.6366 108.56 59.6366 108.602ZM69.6569 105.768H72.1099C72.3352 106.045 72.9003 107.026 73.8047 108.709C74.1534 109.285 74.7834 110.392 75.6925 112.027L75.7669 112.068C77.6455 108.702 78.8405 106.603 79.3495 105.768H81.835C81.8861 105.777 81.9094 105.8 81.9094 105.842V115.46C81.9094 115.509 81.8861 115.535 81.835 115.535H80.2889C80.2401 115.535 80.2143 115.509 80.2143 115.46V107.614H80.1795C80.1795 107.677 79.1357 109.551 77.0478 113.233C76.2203 114.71 75.7809 115.451 75.7251 115.46C75.6622 115.4 75.1114 114.444 74.0698 112.592C72.3865 109.599 71.4426 107.953 71.2425 107.653V115.384C71.2425 115.435 71.2192 115.46 71.1682 115.46H69.7316C69.6687 115.509 69.6314 115.535 69.6221 115.535L69.5825 115.46V105.842C69.5918 105.793 69.6151 105.768 69.6569 105.768ZM83.7832 105.768H93.4014C93.4407 105.773 93.4617 105.793 93.4617 105.828V115.474C93.4617 115.514 93.4407 115.535 93.4014 115.535H91.8554C91.8132 115.535 91.7925 115.514 91.7925 115.474V107.43H85.357V115.474C85.357 115.514 85.3363 115.535 85.2945 115.535H83.7832C83.7414 115.535 83.7203 115.514 83.7203 115.474V105.828C83.7251 105.789 83.7458 105.768 83.7832 105.768ZM100.892 105.768C100.967 105.773 101.259 106.438 101.771 107.763C103.733 112.368 104.812 114.937 105.007 115.474C105.007 115.514 104.986 115.535 104.947 115.535H103.433C103.38 115.535 103.108 114.891 102.617 113.6H97.7186C97.6791 113.619 97.4046 114.263 96.9027 115.535H95.3285C95.2867 115.535 95.266 115.504 95.266 115.446C97.9513 109.058 99.3136 105.831 99.3531 105.768H100.892ZM98.3534 111.938H101.922V111.903C100.75 109.053 100.164 107.602 100.164 107.551C100.106 107.621 99.5018 109.083 98.3534 111.938ZM106.839 105.768H108.378C108.42 105.773 108.441 105.793 108.441 105.828V109.82H114.884V105.828C114.888 105.789 114.909 105.768 114.946 105.768H116.457C116.499 105.773 116.518 105.793 116.518 105.828V115.474C116.518 115.514 116.499 115.535 116.457 115.535H114.946C114.904 115.535 114.884 115.514 114.884 115.474V111.482H108.441V115.474C108.441 115.514 108.42 115.535 108.378 115.535H106.839C106.8 115.535 106.779 115.514 106.779 115.474V105.828C106.784 105.789 106.804 105.768 106.839 105.768ZM118.336 105.768H119.882C119.933 105.777 119.959 105.8 119.959 105.842V112.859L126.408 105.768H127.954C128.005 105.777 128.029 105.8 128.029 105.842V115.46C128.029 115.509 128.005 115.535 127.954 115.535H126.408C126.359 115.535 126.333 115.509 126.333 115.46V108.444C126.083 108.667 124.488 110.427 121.544 113.724C120.537 114.84 119.97 115.444 119.849 115.535H118.336C118.287 115.535 118.262 115.509 118.262 115.46V105.842C118.271 105.793 118.296 105.768 118.336 105.768ZM132.436 105.74L132.588 105.768H139.411C139.453 105.777 139.474 105.798 139.474 105.828V115.474C139.474 115.514 139.453 115.535 139.411 115.535H137.893C137.851 115.535 137.83 115.514 137.83 115.474V112.838H134.834L132.009 115.535H129.767C129.726 115.535 129.705 115.514 129.705 115.474L132.436 112.803C131.86 112.731 131.304 112.487 130.767 112.075C130.06 111.38 129.705 110.634 129.705 109.834V108.744C129.705 107.681 130.251 106.8 131.339 106.1C131.539 105.979 131.906 105.858 132.436 105.74ZM131.374 108.56V110.046C131.374 110.332 131.606 110.643 132.069 110.985C132.269 111.108 132.432 111.169 132.56 111.169H137.83V107.409H132.525C132.153 107.409 131.799 107.69 131.462 108.253C131.404 108.358 131.374 108.46 131.374 108.56Z" fill="white"/>
</svg>
