<?xml version="1.0" encoding="UTF-8"?>
<svg id="Layer_2" data-name="Layer 2" xmlns="http://www.w3.org/2000/svg" viewBox="0 0 74.85 82.1">
  <defs>
    <style>
      .cls-1, .cls-2 {
        fill: #fff;
      }

      .cls-2, .cls-3 {
        fill-rule: evenodd;
      }

      .cls-3 {
        fill: #d22124;
      }
    </style>
  </defs>
  <g id="Layer_1-2" data-name="Layer 1">
    <path class="cls-1" d="M41.65,8.77h19.54V55.52h-19.54v-19h6.23v-8.77h-6.23V8.77Z"/>
    <path class="cls-1" d="M13.55,8.77h19.33V55.52H13.55V8.77Z"/>
    <path class="cls-2" d="M4.49,62.38H13.48c.98,0,1.92,.54,2.84,1.62,.5,.75,.75,1.41,.75,1.98v1.93c0,1.04-.58,2.02-1.74,2.96-.72,.45-1.41,.67-2.05,.67H6.54v3.44c0,.05-.03,.08-.08,.08h-1.97c-.05,0-.08-.03-.08-.08v-12.51c0-.05,.03-.08,.08-.08Zm2.05,7.06v-4.97h6.94l.2,.04c.86,.45,1.3,.96,1.3,1.54v1.82c0,.09-.04,.23-.11,.43-.47,.77-.97,1.15-1.5,1.15H6.54Z"/>
    <path class="cls-2" d="M21.82,62.38h5.44c1.02,0,2,.58,2.96,1.74,.45,.75,.67,1.46,.67,2.13v5.01c0,1.09-.56,2.12-1.69,3.08-.76,.47-1.47,.71-2.13,.71h-5.05c-1.37,0-2.51-.75-3.43-2.25-.27-.7-.4-1.19-.4-1.49v-5.02c0-1.46,.76-2.64,2.29-3.55,.56-.24,1.01-.35,1.34-.35Zm-1.5,9v-5.32c0-.05,.03-.19,.08-.4,.48-.79,.97-1.18,1.46-1.18h5.37c.09,0,.23,.04,.43,.11,.74,.47,1.1,.95,1.1,1.42v5.45c-.05,.18-.08,.29-.08,.31-.49,.79-1,1.18-1.54,1.18h-5.21s-.17-.03-.39-.08c-.82-.48-1.23-.97-1.23-1.49Z"/>
    <path class="cls-1" d="M32.03,62.38h1.96c.07,.01,.11,.04,.11,.1v5.16h1.86l5.55-5.25h2.99c.07,.01,.1,.04,.1,.1-.28,.32-2.42,2.4-6.43,6.23l6.43,6.18v.05c0,.06-.03,.1-.1,.1h-2.99l-5.55-5.25h-1.86v5.16c0,.06-.03,.1-.11,.1h-1.96c-.07,0-.1-.03-.1-.1v-12.47c.01-.06,.05-.1,.1-.1Z"/>
    <path class="cls-2" d="M49.43,62.38h5.44c1.02,0,2,.58,2.96,1.74,.45,.75,.67,1.46,.67,2.13v5.01c0,1.09-.56,2.12-1.69,3.08-.76,.47-1.47,.71-2.13,.71h-5.05c-1.36,0-2.51-.75-3.43-2.25-.26-.7-.4-1.19-.4-1.49v-5.02c0-1.46,.76-2.64,2.29-3.55,.56-.24,1.01-.35,1.34-.35Zm-1.5,9v-5.32c0-.05,.03-.19,.08-.4,.48-.79,.97-1.18,1.45-1.18h5.37c.09,0,.23,.04,.43,.11,.74,.47,1.1,.95,1.1,1.42v5.45c-.06,.18-.08,.29-.08,.31-.49,.79-1,1.18-1.54,1.18h-5.21s-.17-.03-.39-.08c-.82-.48-1.23-.97-1.23-1.49Z"/>
    <path class="cls-1" d="M63.24,62.38h5.52c.97,0,1.91,.53,2.81,1.58,.52,.75,.79,1.43,.79,2.01l-.08,.04h-2.01c0-.5-.4-.99-1.22-1.46-.17-.05-.29-.08-.35-.08h-5.33c-.49,0-.97,.38-1.46,1.14-.07,.25-.11,.45-.11,.59v5.1c0,.54,.39,1.05,1.18,1.54,.24,.08,.39,.11,.47,.11h5.21c.55,0,1.06-.41,1.54-1.22,0-.08,.03-.19,.08-.32l.2,.04h1.78l.08-.04,.04,.08c0,.81-.49,1.71-1.46,2.69-.82,.58-1.6,.87-2.33,.87h-5.05c-1.36,0-2.48-.71-3.35-2.13-.32-.58-.48-1.16-.48-1.74v-4.97c0-1.35,.72-2.5,2.17-3.42,.64-.27,1.1-.4,1.38-.4Z"/>
    <path class="cls-2" d="M6.54,69.44v-4.97h6.94l.2,.04c.86,.45,1.3,.96,1.3,1.54v1.82c0,.09-.04,.23-.11,.43-.47,.77-.97,1.15-1.5,1.15H6.54Zm13.79,1.93v-5.32c0-.05,.03-.19,.08-.4,.48-.79,.97-1.18,1.46-1.18h5.37c.09,0,.23,.04,.43,.11,.74,.47,1.1,.95,1.1,1.42v5.45c-.05,.18-.08,.29-.08,.31-.49,.79-1,1.18-1.54,1.18h-5.21s-.17-.03-.39-.08c-.82-.48-1.23-.97-1.23-1.49Zm27.6,0v-5.32c0-.05,.03-.19,.08-.4,.48-.79,.97-1.18,1.45-1.18h5.37c.09,0,.23,.04,.43,.11,.74,.47,1.1,.95,1.1,1.42v5.45c-.06,.18-.08,.29-.08,.31-.49,.79-1,1.18-1.54,1.18h-5.21s-.17-.03-.39-.08c-.82-.48-1.23-.97-1.23-1.49Z"/>
    <path class="cls-3" d="M13.55,8.77h19.33V55.52H13.55V8.77Zm28.1,0h19.54V55.52h-19.54v-19h6.23v-8.77h-6.23V8.77ZM0,55.52H4.79V0H69.96V55.52h4.89v26.58H0v-26.58Zm4.49,6.85H13.48c.98,0,1.92,.54,2.84,1.62,.5,.75,.75,1.41,.75,1.98v1.93c0,1.04-.58,2.02-1.74,2.96-.72,.45-1.41,.67-2.05,.67H6.54v3.44c0,.05-.03,.08-.08,.08h-1.97c-.05,0-.08-.03-.08-.08v-12.51c0-.05,.03-.08,.08-.08Zm2.05,2.09v4.97h6.83c.53,0,1.03-.38,1.5-1.15,.08-.2,.11-.35,.11-.43v-1.82c0-.57-.43-1.08-1.3-1.54l-.2-.04H6.54Zm25.49-2.09h1.96c.07,.01,.11,.04,.11,.1v5.16h1.86l5.55-5.25h2.99c.07,.01,.1,.04,.1,.1-.28,.32-2.42,2.4-6.43,6.23l6.43,6.18v.05c0,.06-.03,.1-.1,.1h-2.99l-5.55-5.25h-1.86v5.16c0,.06-.03,.1-.11,.1h-1.96c-.07,0-.1-.03-.1-.1v-12.47c.01-.06,.05-.1,.1-.1Zm-10.21,0h5.44c1.02,0,2,.58,2.96,1.74,.45,.75,.67,1.46,.67,2.13v5.01c0,1.09-.56,2.12-1.69,3.08-.76,.47-1.47,.71-2.13,.71h-5.05c-1.37,0-2.51-.75-3.43-2.25-.27-.7-.4-1.19-.4-1.49v-5.02c0-1.46,.76-2.64,2.29-3.55,.56-.24,1.01-.35,1.34-.35Zm-1.5,3.67v5.32c0,.52,.41,1.02,1.23,1.49,.21,.05,.34,.08,.39,.08h5.21c.54,0,1.05-.39,1.54-1.18,0-.02,.02-.13,.08-.31v-5.45c0-.48-.37-.95-1.1-1.42-.2-.08-.34-.11-.43-.11h-5.37c-.49,0-.97,.39-1.46,1.18-.05,.21-.08,.34-.08,.4Zm42.92-3.67h5.52c.97,0,1.91,.53,2.81,1.58,.52,.75,.79,1.43,.79,2.01l-.08,.04h-2.01c0-.5-.4-.99-1.22-1.46-.17-.05-.29-.08-.35-.08h-5.33c-.49,0-.97,.38-1.46,1.14-.07,.25-.11,.45-.11,.59v5.1c0,.54,.39,1.05,1.18,1.54,.24,.08,.39,.11,.47,.11h5.21c.55,0,1.06-.41,1.54-1.22,0-.08,.03-.19,.08-.32l.2,.04h1.78l.08-.04,.04,.08c0,.81-.49,1.71-1.46,2.69-.82,.58-1.6,.87-2.33,.87h-5.05c-1.36,0-2.48-.71-3.35-2.13-.32-.58-.48-1.16-.48-1.74v-4.97c0-1.35,.72-2.5,2.17-3.42,.64-.27,1.1-.4,1.38-.4Zm-13.82,0h5.44c1.02,0,2,.58,2.96,1.74,.45,.75,.67,1.46,.67,2.13v5.01c0,1.09-.56,2.12-1.69,3.08-.76,.47-1.47,.71-2.13,.71h-5.05c-1.36,0-2.51-.75-3.43-2.25-.26-.7-.4-1.19-.4-1.49v-5.02c0-1.46,.76-2.64,2.29-3.55,.56-.24,1.01-.35,1.34-.35Zm-1.5,3.67v5.32c0,.52,.41,1.02,1.23,1.49,.21,.05,.34,.08,.39,.08h5.21c.54,0,1.05-.39,1.54-1.18,0-.02,.02-.13,.08-.31v-5.45c0-.48-.37-.95-1.1-1.42-.2-.08-.34-.11-.43-.11h-5.37c-.49,0-.97,.39-1.45,1.18-.06,.21-.08,.34-.08,.4Z"/>
  </g>
</svg>